Coordinates
version=1
nRows=10
nColumns=40
inDegrees=yes

Units are S.I. units (second, meters, Newtons, ...)
If the header above contains a line with 'inDegrees', this indicates whether rotational values are in degrees (yes) or radians (no).

endheader
time	pelvis_tilt	pelvis_list	pelvis_rotation	pelvis_tx	pelvis_ty	pelvis_tz	hip_flexion_r	hip_adduction_r	hip_rotation_r	knee_angle_r	knee_angle_r_beta	ankle_angle_r	subtalar_angle_r	mtp_angle_r	hip_flexion_l	hip_adduction_l	hip_rotation_l	knee_angle_l	knee_angle_l_beta	ankle_angle_l	subtalar_angle_l	mtp_angle_l	lumbar_extension	lumbar_bending	lumbar_rotation	arm_flex_r	arm_add_r	arm_rot_r	elbow_flex_r	pro_sup_r	wrist_flex_r	wrist_dev_r	arm_flex_l	arm_add_l	arm_rot_l	elbow_flex_l	pro_sup_l	wrist_flex_l	wrist_dev_l
      0.59000000	      1.26315473	     -9.64215392	     85.48285811	      0.26678779	      0.86164092	      0.72415600	    -17.50225366	      4.03347776	      5.53466825	      7.65909703	      0.13367646	      3.46825457	      0.00000000	      0.00000000	     42.08935714	     -1.51613619	     -1.65486119	      8.78861161	      0.15339021	      1.16552345	      0.00000000	      0.00000000	      3.75533209	     -0.33381581	      7.24627383	      0.00000000	      0.00000000	      0.00000000	      0.00000000	      0.00000000	      0.00000000	      0.00000000	      0.00000000	      0.00000000	      0.00000000	      0.00000000	      0.00000000	      0.00000000	      0.00000000
      0.60000000	      0.44445030	     -9.70841084	     85.23714769	      0.26668522	      0.86144640	      0.70089389	    -16.39658109	      2.90261623	      3.67112498	     11.42009452	      0.19931825	      0.31171179	      0.00000000	     -0.00000000	     42.42332063	     -0.80922601	     -2.39586293	     11.43768174	      0.19962521	     -1.80613231	     -0.00000000	      0.00000000	      4.26611416	     -1.20127814	      6.87875396	      0.00000000	      0.00000000	      0.00000000	      0.00000000	      0.00000000	      0.00000000	      0.00000000	     -0.00000000	     -0.00000000	     -0.00000000	      0.00000000	      0.00000000	      0.00000000	      0.00000000
      0.61000000	     -0.37167560	     -9.53388888	     85.06376870	      0.26644804	      0.86222252	      0.67775302	    -15.17963068	      1.66477948	      1.77302351	     15.63070531	      0.27280727	     -3.41510599	      0.00000000	      0.00000000	     42.41882097	     -0.08240866	     -3.08763237	     14.00277009	      0.24439444	     -4.56206953	      0.00000000	      0.00000000	      4.46253093	     -2.07930695	      6.39973231	      0.00000000	      0.00000000	      0.00000000	      0.00000000	      0.00000000	      0.00000000	      0.00000000	      0.00000000	      0.00000000	      0.00000000	      0.00000000	      0.00000000	      0.00000000	      0.00000000
      0.62000000	     -1.22586763	     -9.55062607	     84.97977104	      0.26598543	      0.86334420	      0.65495742	    -13.30531920	      0.32278772	      0.00978796	     20.46082498	      0.35710876	     -7.33074915	      0.00000000	     -0.00000000	     42.51100353	      0.72234670	     -3.60902923	     16.40790803	      0.28637202	     -6.75804353	      0.00000000	      0.00000000	      4.87584625	     -2.96689524	      5.86767105	      0.00000000	     -0.00000000	     -0.00000000	      0.00000000	      0.00000000	     -0.00000000	     -0.00000000	      0.00000000	     -0.00000000	     -0.00000000	      0.00000000	      0.00000000	     -0.00000000	      0.00000000
      0.63000000	     -2.19593254	     -9.37871608	     84.91548512	      0.26537947	      0.86531848	      0.63237257	    -11.34261435	     -1.21335125	     -1.39410232	     25.56725974	      0.44623286	    -11.35878175	      0.00000000	      0.00000000	     42.22390119	      1.65552031	     -4.19390079	     18.57102098	      0.32412546	     -7.99721353	      0.00000000	      0.00000000	      5.04833059	     -3.99384077	      5.26806747	      0.00000000	      0.00000000	      0.00000000	      0.00000000	      0.00000000	      0.00000000	      0.00000000	      0.00000000	      0.00000000	      0.00000000	      0.00000000	      0.00000000	      0.00000000	      0.00000000
      0.64000000	     -3.20185980	     -9.24926897	     84.89188135	      0.26467912	      0.86777115	      0.61025147	     -9.01687284	     -2.76825252	     -2.28204923	     30.95747719	      0.54030991	    -14.85619484	      0.00000000	      0.00000000	     41.78246222	      2.65945177	     -4.73844698	     20.43219525	      0.35660908	     -8.31200566	      0.00000000	      0.00000000	      5.23777076	     -5.05437176	      4.65654548	      0.00000000	      0.00000000	      0.00000000	      0.00000000	      0.00000000	      0.00000000	      0.00000000	      0.00000000	      0.00000000	      0.00000000	      0.00000000	      0.00000000	      0.00000000	      0.00000000
      0.65000000	     -4.17701371	     -9.26145412	     84.82575997	      0.26397104	      0.87047827	      0.58893739	     -6.20654010	     -4.21083493	     -2.56658562	     36.56211121	      0.63812922	    -17.33361007	      0.00000000	      0.00000000	     41.27680234	      3.64555192	     -5.15689186	     21.90691235	      0.38234775	     -7.85346422	      0.00000000	      0.00000000	      5.47317042	     -6.00850201	      4.07117011	      0.00000000	      0.00000000	      0.00000000	      0.00000000	      0.00000000	      0.00000000	      0.00000000	      0.00000000	      0.00000000	      0.00000000	      0.00000000	      0.00000000	      0.00000000	      0.00000000
      0.66000000	     -5.13910186	     -9.31961069	     84.78476526	      0.26329972	      0.87354836	      0.56814501	     -3.18482016	     -5.46316685	     -2.30535816	     41.98245986	      0.73273215	    -18.68871656	      0.00000000	      0.00000000	     40.56151977	      4.65894932	     -5.58459834	     22.94886619	      0.40053327	     -6.83171920	      0.00000000	      0.00000000	      5.73165425	     -6.96964033	      3.44064316	      0.00000000	      0.00000000	      0.00000000	      0.00000000	      0.00000000	      0.00000000	      0.00000000	      0.00000000	      0.00000000	      0.00000000	      0.00000000	      0.00000000	      0.00000000	      0.00000000
      0.67000000	     -6.14916781	     -9.22159634	     84.75624369	      0.26252839	      0.87729326	      0.54776129	     -0.24204091	     -6.66688721	     -1.80517761	     46.98822559	      0.82009925	    -19.11625820	      0.00000000	      0.00000000	     39.33702392	      5.82022838	     -5.94493910	     23.35956277	      0.40770128	     -5.38729145	      0.00000000	      0.00000000	      5.74982093	     -7.97086131	      2.79017045	      0.00000000	      0.00000000	      0.00000000	      0.00000000	      0.00000000	      0.00000000	      0.00000000	      0.00000000	      0.00000000	      0.00000000	      0.00000000	      0.00000000	      0.00000000	      0.00000000
      0.68000000	     -7.01821253	     -9.31685786	     84.69955556	      0.26195753	      0.88112704	      0.52803013	      3.02479322	     -7.53319387	     -1.01009208	     51.54934459	      0.89970579	    -18.29611546	      0.00000000	      0.00000000	     38.05776647	      6.87292796	     -6.11968438	     23.26444518	      0.40604117	     -3.89113378	      0.00000000	      0.00000000	      5.93192220	     -8.80989524	      2.18232022	      0.00000000	      0.00000000	      0.00000000	      0.00000000	      0.00000000	      0.00000000	      0.00000000	      0.00000000	      0.00000000	      0.00000000	      0.00000000	      0.00000000	      0.00000000	      0.00000000
